<?xml version="1.0" encoding="UTF-8"?>
<svg id="Layer_1" data-name="Layer 1" xmlns="http://www.w3.org/2000/svg" viewBox="0 0 538.09 63.51">
  <defs>
    <style>
      .cls-1 {
        fill: #4d4d4d;
      }

      .cls-2 {
        fill: #008529;
      }
    </style>
  </defs>
  <g id="Layer_2" data-name="Layer 2">
    <g>
      <g>
        <path class="cls-2" d="M61.57,19.31h-11.41c-2.83,0-3.18-.34-3.18-3V5.57c0-3.07-2.66-5.57-5.92-5.57h-14.63c-3.26,0-5.91,2.5-5.91,5.57v15.75c.08,1.33.63,2.53,1.52,3.46l18.33,17.25c.7.64.65,1.49.65,1.49v11.38c0,2.67-.35,3-3.17,3h-8.2c-2.83,0-3.18-.34-3.18-3v-10.74c0-3.07-2.65-5.56-5.92-5.56h-11.41c-2.83,0-3.19-.33-3.19-3v-7.71c0-2.74.23-3,2.76-3h3.15c1.64,0,2.98-1.26,2.98-2.8s-1.33-2.79-2.98-2.79h-5.93c-3.27,0-5.92,2.49-5.92,5.56v13.77c0,3.07,2.66,5.56,5.92,5.56h11.41c2.83,0,3.18.34,3.18,3v10.74c0,3.07,2.65,5.57,5.91,5.57h14.63c3.26,0,5.92-2.5,5.92-5.57v-15.36c-.02-1.41-.25-2.46-1.54-3.66l-18.33-17.26c-.4-.4-.64-.94-.64-1.53h0v-11.36c0-1.33-.09-1.93.5-2.54.61-.63,1.29-.64,2.69-.64h8.2c1.59,0,2.14.14,2.65.63.57.55.53,1.35.53,2.55v10.56c0,3.07,2.65,5.57,5.92,5.57h11.41c2.84,0,3.19.34,3.19,3v7.71c0,2.66-.26,2.97-2.46,3,0,0-.03,0-.05,0h-3.42c-1.55,0-2.84,1.14-2.95,2.6-.02.07-.02.38,0,.47.15,1.44,1.42,2.52,2.95,2.52h5.95c3.27,0,5.92-2.49,5.92-5.56v-13.77c0-3.07-2.65-5.56-5.92-5.56"/>
        <path class="cls-2" d="M281.38,13.4h-6.8c-.85,0-1.54.65-1.54,1.44v23.43c0,.36.02.63-.27.72-.24.09-.49-.17-.66-.43l-19.41-24.02c-.51-.62-1.13-1.14-2.46-1.14h-6.14c-.85,0-1.53.65-1.53,1.44v39.85c0,.79.57,1.44,1.53,1.44h6.8c.96,0,1.53-.65,1.53-1.44v-24.27c0-.21,0-.36.04-.48.12-.24.44-.28.67-.08.08.08.13.13.21.25,0,0,19.49,24.07,20.14,24.87.66.85,1.44,1.15,2.46,1.15h5.43c.94-.07,1.52-.59,1.52-1.44V14.84c0-.79-.68-1.44-1.52-1.44"/>
        <path class="cls-2" d="M230.25,13.4h-6.8c-.85,0-1.54.65-1.54,1.44v23.43c0,.36.03.63-.26.72-.25.09-.49-.17-.67-.43l-19.42-24.02c-.52-.62-1.14-1.14-2.46-1.14h-6.16c-.84,0-1.53.65-1.53,1.44v39.85c0,.79.58,1.44,1.53,1.44h6.8c.96,0,1.53-.65,1.53-1.44v-24.27c0-.21,0-.36.05-.48.11-.24.43-.28.66-.08.08.08.11.13.22.25,0,0,19.49,24.07,20.13,24.87.68.85,1.45,1.15,2.46,1.15h5.44c.94-.07,1.53-.59,1.53-1.44V14.84c0-.79-.69-1.44-1.53-1.44"/>
        <path class="cls-2" d="M117.29,30.56c-7.84-1.89-9.78-2.81-9.78-5.61v-.12c0-2.07,2-3.72,5.83-3.72.67,0,1.34.05,2.02.15.19.02.38.07.56.09,2.25.42,4.35,1.28,5.85,2.03.16.09,1.69.94,1.69.94.01,0,.62.3.63.3.77.34,1.38.15,1.9-.48l3.5-4.77.02-.04c.16-.23.24-.5.24-.78,0-.43-.14-.75-.46-1.01-.07-.05-.23-.17-.3-.22-.26-.17-.53-.35-.8-.52-.02,0-.04-.03-.06-.03-.26-.15-.51-.31-.78-.46-.06-.03-.1-.04-.15-.08-.23-.12-.47-.25-.7-.37-.12-.06-.24-.11-.34-.17-.19-.09-.36-.18-.55-.25-3.58-1.7-7.64-2.61-12.15-2.61h-.01c-9.26-.01-15.88,5.13-15.88,12.87v.12c0,8.47,5.9,10.86,15.04,13.05,7.58,1.82,9.13,3.04,9.13,5.42v.13c0,2.5-2.46,4.02-6.54,4.02-1.91,0-3.7-.28-5.4-.78-.13-.04-.26-.09-.4-.13-.05-.02-.11-.03-.17-.06-.82-.27-1.58-.59-2.28-.91-.2-.08-.39-.18-.58-.28h0c-1.15-.58-2.13-1.16-3.21-1.93-.15-.11-.39-.27-.41-.29-.69-.41-1.48-.33-2.07.3l-3.78,4.26c-.09.11-.14.19-.2.3-.17.22-.3.5-.3.79,0,.4.11.66.38.93.12.12.22.19.46.4,5.19,3.8,11.51,5.69,17.77,5.69,9.79,0,16.65-4.75,16.65-13.23v-.13c0-7.44-5.16-10.56-14.37-12.81"/>
        <path class="cls-2" d="M165.03,14.71c-.32-.72-1.11-1.31-2.11-1.31h-6.11c-1.02,0-1.8.6-2.12,1.31l-18.15,40.1c-.32.73.09,1.32.93,1.32h7.08c.84,0,1.62-.33,2.1-1.33l3.15-7.32c.33-.73.66-.81,1.46-.58,0,0,3.42.99,8.46.99,5.54,0,8.41-.91,8.41-.91.79-.21,1.21-.24,1.53.49l3.15,7.32c.57,1.15,1.26,1.33,2.09,1.33h7.34c.83,0,1.26-.59.93-1.32l-18.14-40.1ZM165.2,38.64c-.75.31-2.35.75-5.47.75s-4.75-.42-5.46-.72h.01c-.29-.12-.43-.41-.36-.7l5.43-12.48s0-.02.02-.06v-.05c.09-.12.21-.19.35-.19.15,0,.27.07.34.18l.03.08s.02.05.02.05l5.4,12.39c.11.29-.02.63-.33.75"/>
        <path class="cls-2" d="M319.58,14.71c-.33-.72-1.11-1.31-2.11-1.31h-6.11c-1.03,0-1.79.6-2.12,1.31l-18.14,40.1c-.33.73.09,1.32.92,1.32h7.08c.83,0,1.62-.33,2.09-1.33l3.17-7.32c.33-.73.66-.81,1.44-.58,0,0,3.43.99,8.48.99,5.53,0,8.41-.91,8.41-.91.77-.21,1.2-.24,1.52.49l3.15,7.32c.56,1.15,1.26,1.33,2.08,1.33h7.34c.84,0,1.25-.59.94-1.32l-18.16-40.1ZM319.75,38.64c-.75.31-2.36.75-5.46.75s-4.76-.42-5.48-.72h.03c-.3-.12-.44-.41-.37-.7l5.44-12.48s0-.02.01-.06l.03-.05c.06-.12.2-.19.34-.19s.25.07.33.18l.03.08s.03.05.03.05l5.4,12.39c.14.29-.02.63-.33.75"/>
        <path class="cls-1" d="M366.01,55.88c-.19,0-.36-.09-.45-.26l-22.1-41.7c-.12-.24-.03-.52.22-.63.25-.12.54-.02.67.21l22.11,41.7c.12.25.03.52-.23.63-.08.04-.15.05-.22.05"/>
      </g>
      <g>
        <path class="cls-1" d="M380.35,17.28h4.98c4.52,0,7.64,2.92,7.64,6.72v.04c0,3.8-3.11,6.76-7.64,6.76h-4.98v-13.52ZM385.33,29.39c3.64,0,5.95-2.32,5.95-5.31v-.04c0-2.99-2.32-5.35-5.95-5.35h-3.36v10.7h3.36Z"/>
        <path class="cls-1" d="M396.74,17.28h1.63v13.52h-1.63v-13.52Z"/>
        <path class="cls-1" d="M401.55,17.28h1.81l5.11,11.64,5.13-11.64h1.75l-6.18,13.61h-1.43l-6.18-13.61Z"/>
        <path class="cls-1" d="M418.52,17.28h1.62v13.52h-1.62v-13.52Z"/>
        <path class="cls-1" d="M423.6,28.83l1.01-1.12c1.49,1.27,2.93,1.91,4.92,1.91s3.21-.97,3.21-2.3v-.04c0-1.26-.72-1.97-3.74-2.57-3.3-.67-4.82-1.68-4.82-3.9v-.04c0-2.13,1.99-3.69,4.72-3.69,2.09,0,3.59.56,5.06,1.66l-.95,1.18c-1.33-1.02-2.67-1.47-4.14-1.47-1.87,0-3.07.96-3.07,2.18v.04c0,1.28.74,1.99,3.9,2.63,3.19.66,4.68,1.76,4.68,3.83v.04c0,2.32-2.05,3.82-4.91,3.82-2.27,0-4.14-.71-5.86-2.16Z"/>
        <path class="cls-1" d="M438.03,17.28h1.61v13.52h-1.61v-13.52Z"/>
        <path class="cls-1" d="M443.41,24.08v-.04c0-3.73,2.98-6.99,7.35-6.99s7.3,3.23,7.3,6.95v.04c0,3.73-2.97,6.99-7.34,6.99-4.37,0-7.31-3.22-7.31-6.95ZM456.38,24.08v-.04c0-3.07-2.38-5.58-5.66-5.58s-5.62,2.47-5.62,5.54v.04c0,3.07,2.38,5.58,5.66,5.58,3.28,0,5.62-2.47,5.62-5.54ZM452.13,13.4l1.62.69-2.36,1.8h-1.31l2.05-2.49Z"/>
        <path class="cls-1" d="M461.7,17.28h1.52l9.04,10.84v-10.84h1.58v13.52h-1.29l-9.27-11.08v11.08h-1.58v-13.52h0Z"/>
      </g>
      <g>
        <path class="cls-1" d="M387.13,37.64h1.53l6.58,13.7h-1.75l-1.7-3.59h-7.86l-1.72,3.59h-1.67l6.58-13.7ZM391.17,46.36l-3.29-6.94-3.3,6.94h6.6Z"/>
        <path class="cls-1" d="M397.8,37.74h1.65l5.27,7.42,5.26-7.42h1.65v13.6h-1.63v-11.01l-5.27,7.29h-.08l-5.27-7.26v10.99h-1.59v-13.6h0Z"/>
        <path class="cls-1" d="M415.43,37.74h6.15c1.66,0,2.96.44,3.78,1.2.6.58.93,1.3.93,2.18v.04c0,1.77-1.15,2.68-2.29,3.15,1.71.49,3.1,1.42,3.1,3.28v.04c0,2.33-2.09,3.71-5.25,3.71h-6.42v-13.6h0ZM421.32,43.8c1.96,0,3.32-.84,3.32-2.43v-.04c0-1.35-1.14-2.22-3.2-2.22h-4.39v4.68h4.28ZM421.9,49.95c2.18,0,3.54-.91,3.54-2.42v-.04c0-1.48-1.32-2.33-3.84-2.33h-4.56v4.79h4.86Z"/>
        <path class="cls-1" d="M429.81,45.64v-7.9h1.64v7.81c0,2.93,1.66,4.58,4.42,4.58s4.36-1.51,4.36-4.48v-7.9h1.63v7.79c0,3.96-2.42,6.02-6.03,6.02-3.57,0-6.02-2.06-6.02-5.91Z"/>
        <path class="cls-1" d="M445.42,37.74h1.63v12.18h8.14v1.42h-9.77v-13.6h0Z"/>
        <path class="cls-1" d="M463.26,37.64h1.53l6.59,13.7h-1.76l-1.7-3.59h-7.86l-1.71,3.59h-1.67l6.58-13.7ZM467.28,46.36l-3.28-6.94-3.3,6.94h6.58Z"/>
        <path class="cls-1" d="M477.75,39.15h-4.85v-1.41h11.35v1.41h-4.85v12.18h-1.66v-12.18Z"/>
        <path class="cls-1" d="M486.38,44.58v-.04c0-3.75,3-7.04,7.39-7.04s7.35,3.24,7.35,7v.04c0,3.76-2.99,7.04-7.39,7.04s-7.35-3.25-7.35-6.99ZM499.43,44.58v-.04c0-3.09-2.4-5.62-5.7-5.62s-5.66,2.49-5.66,5.58v.04c0,3.09,2.39,5.62,5.7,5.62s5.66-2.5,5.66-5.58Z"/>
        <path class="cls-1" d="M504.28,37.74h6.21c1.78,0,3.2.5,4.11,1.36.7.66,1.11,1.62,1.11,2.69v.03c0,2.25-1.65,3.58-3.92,3.96l4.44,5.55h-2l-4.19-5.28h-4.13v5.28h-1.63v-13.6h0ZM510.34,44.67c2.17,0,3.72-1.05,3.72-2.8v-.04c0-1.67-1.37-2.68-3.7-2.68h-4.46v5.52h4.43Z"/>
        <path class="cls-1" d="M519.05,37.74h1.63v13.6h-1.63v-13.6Z"/>
        <path class="cls-1" d="M529.97,37.64h1.53l6.58,13.7h-1.76l-1.69-3.59h-7.87l-1.71,3.59h-1.67l6.59-13.7ZM534,46.36l-3.28-6.94-3.3,6.94h6.59Z"/>
      </g>
    </g>
  </g>
</svg>